<svg width="403" height="97" viewBox="0 0 403 97" fill="none" xmlns="http://www.w3.org/2000/svg">
<path fill-rule="evenodd" clip-rule="evenodd" d="M90.5785 13.5506C52.2416 17.9777 20.5951 24.1953 3.12757 31.2801L0.872437 25.72C19.1549 18.3048 51.5084 12.0224 89.8902 7.59018C128.368 3.14678 173.203 0.531253 216.627 0.562595C260.03 0.593922 302.141 3.26922 335.131 9.44986C351.617 12.5386 365.952 16.5253 377.068 21.5635C388.1 26.5629 396.437 32.8105 400.207 40.7074C402.137 44.7492 402.576 48.7829 401.445 52.6695C400.334 56.4889 397.799 59.8517 394.353 62.8087C387.526 68.6688 376.448 73.5096 362.696 77.5429C335.069 85.6451 295.165 90.8958 252.382 93.6812C209.552 96.4697 163.644 96.7988 123.918 94.9892C84.2993 93.1844 50.504 89.241 32.0871 83.3579L33.9129 77.6424C51.496 83.2592 84.5757 87.1908 124.191 88.9954C163.699 90.7951 209.386 90.4679 251.993 87.6939C294.647 84.9168 334.025 79.6988 361.007 71.7854C374.559 67.8109 384.619 63.2571 390.445 58.2558C393.327 55.7822 394.999 53.3477 395.684 50.993C396.35 48.7055 396.175 46.1885 394.793 43.2927C391.938 37.3147 385.182 31.8279 374.592 27.0285C364.087 22.2679 350.274 18.3913 334.026 15.3473C301.547 9.26226 259.845 6.59379 216.623 6.56259C173.422 6.53141 128.819 9.13461 90.5785 13.5506Z" fill="#F08C00"/>
</svg>
