<svg width="123" height="25" viewBox="0 0 123 25" fill="none" xmlns="http://www.w3.org/2000/svg">
<path d="M5.15203 1.86401C7.48804 1.86401 9.20803 2.28801 10.312 3.13601C11.432 3.98401 11.992 5.27201 11.992 7.00001C11.992 7.78401 11.84 8.47201 11.536 9.06401C11.248 9.64001 10.856 10.136 10.36 10.552C9.88003 10.952 9.36003 11.28 8.80003 11.536L13.84 19H9.80803L5.72803 12.424H3.78403V19H0.160034V1.86401H5.15203ZM4.88803 4.84001H3.78403V9.47201H4.96003C6.16003 9.47201 7.01603 9.27201 7.52803 8.87201C8.05603 8.47201 8.32003 7.88001 8.32003 7.09601C8.32003 6.28001 8.04003 5.70401 7.48003 5.36801C6.93604 5.01601 6.07203 4.84001 4.88803 4.84001Z" fill="white"/>
<path d="M27.6198 12.424C27.6198 14.6 27.0438 16.28 25.8918 17.464C24.7558 18.648 23.2038 19.24 21.2358 19.24C20.0198 19.24 18.9318 18.976 17.9718 18.448C17.0278 17.92 16.2838 17.152 15.7398 16.144C15.1958 15.12 14.9238 13.88 14.9238 12.424C14.9238 10.248 15.4918 8.57601 16.6278 7.40801C17.7638 6.24001 19.3238 5.65601 21.3078 5.65601C22.5398 5.65601 23.6278 5.92001 24.5718 6.44801C25.5158 6.97601 26.2598 7.74401 26.8038 8.75201C27.3478 9.74401 27.6198 10.968 27.6198 12.424ZM18.5718 12.424C18.5718 13.72 18.7798 14.704 19.1958 15.376C19.6278 16.032 20.3238 16.36 21.2838 16.36C22.2278 16.36 22.9078 16.032 23.3238 15.376C23.7558 14.704 23.9718 13.72 23.9718 12.424C23.9718 11.128 23.7558 10.16 23.3238 9.52001C22.9078 8.86401 22.2198 8.53601 21.2598 8.53601C20.3158 8.53601 19.6278 8.86401 19.1958 9.52001C18.7798 10.16 18.5718 11.128 18.5718 12.424Z" fill="white"/>
<path d="M37.8952 5.65601C38.0712 5.65601 38.2792 5.66401 38.5192 5.68001C38.7592 5.69601 38.9512 5.72001 39.0952 5.75201L38.8312 9.11201C38.7192 9.08001 38.5512 9.05601 38.3272 9.04001C38.1192 9.00801 37.9352 8.99201 37.7752 8.99201C37.1672 8.99201 36.5832 9.10401 36.0232 9.32801C35.4632 9.53601 35.0072 9.88001 34.6552 10.36C34.3192 10.84 34.1512 11.496 34.1512 12.328V19H30.5752V5.89601H33.2872L33.8152 8.10401H33.9832C34.3672 7.43201 34.8952 6.85601 35.5672 6.37601C36.2392 5.89601 37.0152 5.65601 37.8952 5.65601Z" fill="white"/>
<path d="M52.9088 12.424C52.9088 14.6 52.3328 16.28 51.1808 17.464C50.0448 18.648 48.4928 19.24 46.5248 19.24C45.3088 19.24 44.2208 18.976 43.2608 18.448C42.3168 17.92 41.5728 17.152 41.0288 16.144C40.4848 15.12 40.2128 13.88 40.2128 12.424C40.2128 10.248 40.7808 8.57601 41.9168 7.40801C43.0528 6.24001 44.6128 5.65601 46.5968 5.65601C47.8288 5.65601 48.9168 5.92001 49.8608 6.44801C50.8048 6.97601 51.5488 7.74401 52.0928 8.75201C52.6368 9.74401 52.9088 10.968 52.9088 12.424ZM43.8608 12.424C43.8608 13.72 44.0688 14.704 44.4848 15.376C44.9168 16.032 45.6128 16.36 46.5728 16.36C47.5168 16.36 48.1968 16.032 48.6128 15.376C49.0448 14.704 49.2608 13.72 49.2608 12.424C49.2608 11.128 49.0448 10.16 48.6128 9.52001C48.1968 8.86401 47.5088 8.53601 46.5488 8.53601C45.6048 8.53601 44.9168 8.86401 44.4848 9.52001C44.0688 10.16 43.8608 11.128 43.8608 12.424Z" fill="white"/>
<path d="M71.2482 5.65601C72.7362 5.65601 73.8562 6.04001 74.6082 6.80801C75.3762 7.56001 75.7602 8.77601 75.7602 10.456V19H72.1842V11.344C72.1842 9.45601 71.5282 8.51201 70.2162 8.51201C69.2722 8.51201 68.6002 8.84801 68.2002 9.52001C67.8002 10.192 67.6002 11.16 67.6002 12.424V19H64.0242V11.344C64.0242 9.45601 63.3682 8.51201 62.0562 8.51201C61.0642 8.51201 60.3762 8.88801 59.9922 9.64001C59.6242 10.376 59.4402 11.44 59.4402 12.832V19H55.8642V5.89601H58.6002L59.0802 7.57601H59.2722C59.6722 6.90401 60.2162 6.41601 60.9042 6.11201C61.6082 5.80801 62.3362 5.65601 63.0882 5.65601C64.0482 5.65601 64.8642 5.81601 65.5362 6.13601C66.2082 6.44001 66.7202 6.92001 67.0722 7.57601H67.3842C67.7842 6.90401 68.3362 6.41601 69.0402 6.11201C69.7602 5.80801 70.4962 5.65601 71.2482 5.65601Z" fill="white"/>
<path d="M86.7383 5.65601C88.2103 5.65601 89.4023 6.23201 90.3143 7.38401C91.2263 8.52001 91.6823 10.2 91.6823 12.424C91.6823 14.648 91.2103 16.344 90.2663 17.512C89.3223 18.664 88.1143 19.24 86.6423 19.24C85.6983 19.24 84.9463 19.072 84.3863 18.736C83.8263 18.384 83.3703 17.992 83.0183 17.56H82.8263C82.9543 18.232 83.0183 18.872 83.0183 19.48V24.76H79.4423V5.89601H82.3463L82.8503 7.60001H83.0183C83.3703 7.07201 83.8423 6.61601 84.4343 6.23201C85.0263 5.84801 85.7943 5.65601 86.7383 5.65601ZM85.5863 8.51201C84.6583 8.51201 84.0023 8.80001 83.6183 9.37601C83.2503 9.95201 83.0503 10.832 83.0183 12.016V12.4C83.0183 13.664 83.2023 14.64 83.5703 15.328C83.9543 16 84.6423 16.336 85.6343 16.336C86.4503 16.336 87.0503 16 87.4343 15.328C87.8343 14.64 88.0343 13.656 88.0343 12.376C88.0343 9.80001 87.2183 8.51201 85.5863 8.51201Z" fill="white"/>
<path d="M106.534 12.424C106.534 14.6 105.958 16.28 104.806 17.464C103.67 18.648 102.118 19.24 100.15 19.24C98.9338 19.24 97.8458 18.976 96.8858 18.448C95.9418 17.92 95.1978 17.152 94.6538 16.144C94.1098 15.12 93.8378 13.88 93.8378 12.424C93.8378 10.248 94.4058 8.57601 95.5418 7.40801C96.6778 6.24001 98.2378 5.65601 100.222 5.65601C101.454 5.65601 102.542 5.92001 103.486 6.44801C104.43 6.97601 105.174 7.74401 105.718 8.75201C106.262 9.74401 106.534 10.968 106.534 12.424ZM97.4858 12.424C97.4858 13.72 97.6938 14.704 98.1098 15.376C98.5418 16.032 99.2378 16.36 100.198 16.36C101.142 16.36 101.822 16.032 102.238 15.376C102.67 14.704 102.886 13.72 102.886 12.424C102.886 11.128 102.67 10.16 102.238 9.52001C101.822 8.86401 101.134 8.53601 100.174 8.53601C99.2298 8.53601 98.5418 8.86401 98.1098 9.52001C97.6938 10.16 97.4858 11.128 97.4858 12.424Z" fill="white"/>
<path d="M113.065 8.92001C113.065 9.41601 113.041 9.91201 112.993 10.408C112.961 10.888 112.921 11.376 112.873 11.872H112.921C113.161 11.536 113.409 11.2 113.665 10.864C113.921 10.512 114.193 10.184 114.481 9.88001L118.153 5.89601H122.185L116.977 11.584L122.497 19H118.369L114.601 13.696L113.065 14.92V19H109.489V0.76001H113.065V8.92001Z" fill="white"/>
</svg>
