<svg width="20" height="20" viewBox="0 0 20 20" fill="none" xmlns="http://www.w3.org/2000/svg">
<path d="M17.562 10.098L19.093 12.75C20.06 14.424 19.486 16.565 17.813 17.531C17.28 17.838 16.677 18 16.063 18H14V20L8.99999 16.5L14 13V15H16.062C16.15 15 16.236 14.977 16.312 14.933C16.525 14.81 16.613 14.555 16.533 14.332L16.495 14.25L14.964 11.598L17.562 10.098ZM5.73699 7.384L6.26699 13.464L4.53699 12.464L3.50499 14.25C3.46099 14.326 3.43799 14.412 3.43799 14.5C3.43799 14.745 3.61499 14.95 3.84799 14.992L3.93799 15H6.99999V18H3.93799C2.00499 18 0.437994 16.433 0.437994 14.5C0.437994 13.886 0.599994 13.282 0.906994 12.75L1.93799 10.964L0.205994 9.964L5.73599 7.384H5.73699ZM11.75 0.969003C12.282 1.276 12.724 1.718 13.031 2.25L14.061 4.036L15.794 3.036L15.264 9.116L9.73199 6.536L11.464 5.536L10.433 3.75C10.389 3.674 10.326 3.61 10.25 3.567C10.037 3.444 9.77199 3.495 9.61899 3.677L9.56699 3.75L8.03699 6.402L5.43799 4.902L6.96799 2.25C7.93499 0.576003 10.076 0.00200334 11.75 0.969003Z" fill="white"/>
</svg>
